M48
METRIC,LZ,000.000
;FILE_FORMAT=3:3
;TYPE=PLATED
;Layer: PTH_Through
;EasyEDA v6.5.22, 2023-02-01 00:42:27
;7127771f42f84564bfbaeca74c76f867,1155796f3fab4927abb0b91c794f2a8a,10
;Gerber Generator version 0.2
;Holesize 1 = 0.710 mm
T01C0.710
;Holesize 2 = 0.800 mm
T02C0.800
;Holesize 3 = 0.813 mm
T03C0.813
;Holesize 4 = 0.915 mm
T04C0.915
;Holesize 5 = 1.000 mm
T05C1.000
;Holesize 6 = 1.016 mm
T06C1.016
;Holesize 7 = 1.270 mm
T07C1.270
;Holesize 8 = 1.301 mm
T08C1.301
;Holesize 9 = 1.701 mm
T09C1.701
;Holesize 10 = 2.501 mm
T10C2.501
%
G05
G90
T01
X052270Y090454
X057350Y090454
X044142Y074325
X046682Y074325
X049222Y074325
X051762Y074325
X044142Y081945
X046682Y081945
X049222Y081945
X051762Y081945
T02
X047698Y090454
X045158Y090454
X115890Y023000
X126050Y023000
X084140Y024300
X094300Y024300
T03
X069732Y065054
X067827Y066324
X069732Y067594
X044459Y060609
X042554Y061879
X044459Y063149
X119070Y013502
X117800Y011597
X116530Y013502
X090520Y013502
X089250Y011597
X087980Y013502
T04
X028500Y085550
X038660Y085550
X028267Y080675
X038427Y080675
X026489Y092867
X040459Y092867
X021663Y078897
X021663Y092867
X041400Y043290
X041400Y057260
X036900Y043290
X036900Y057260
X063319Y064927
X049349Y064927
X049349Y059910
X063319Y059910
X049349Y054894
X063319Y054894
X058715Y015950
X072685Y015950
X058665Y011150
X072635Y011150
X024365Y016000
X038335Y016000
T05
X073987Y087533G85X073987Y087533
X073987Y084993G85X073987Y084993
X073987Y082453G85X073987Y082453
X039189Y070007
X041729Y070007
X028280Y074050
X030820Y074050
X043680Y012915
X051520Y012925
X051520Y010385
X043690Y010375
T06
X027050Y008750
X027050Y011290
X027000Y040900
X027000Y043440
T07
X012516Y060482G85X012522Y060482
X012516Y055402G85X012522Y055402
X012516Y055402G85X012522Y055402
X012522Y025250G85X012516Y025250
X012522Y030330G85X012516Y030330
X012522Y030330G85X012516Y030330
T08
X094307Y035082
X084147Y035082
X126301Y035372
X116141Y035372
T09
X094307Y077119
X094307Y092359
X101927Y077119
X101927Y092359
X109547Y077119
X109547Y092359
X117167Y077119
X117167Y092359
X124787Y077119
X124787Y092359
T10
X080327Y047782
X098127Y057942
X098127Y050322
X112321Y048072
X130121Y058232
X130121Y050612
M30
