G04 Layer: TopSolderMaskLayer*
G04 EasyEDA v6.5.22, 2023-01-15 02:32:39*
G04 0bdbfba1a4ec4b7484ebadf12ba1fff0,1155796f3fab4927abb0b91c794f2a8a,10*
G04 Gerber Generator version 0.2*
G04 Scale: 100 percent, Rotated: No, Reflected: No *
G04 Dimensions in millimeters *
G04 leading zeros omitted , absolute positions ,4 integer and 5 decimal *
%FSLAX45Y45*%
%MOMM*%

%AMMACRO1*1,1,$1,$2,$3*1,1,$1,$4,$5*1,1,$1,0-$2,0-$3*1,1,$1,0-$4,0-$5*20,1,$1,$2,$3,$4,$5,0*20,1,$1,$4,$5,0-$2,0-$3,0*20,1,$1,0-$2,0-$3,0-$4,0-$5,0*20,1,$1,0-$4,0-$5,$2,$3,0*4,1,4,$2,$3,$4,$5,0-$2,0-$3,0-$4,0-$5,$2,$3,0*%
%ADD10MACRO1,0.1016X-1.905X-3.81X-1.905X3.81*%
%ADD11O,3.9116X7.7216*%
%ADD12O,4.0132X7.8232*%
%ADD13C,2.2032*%
%ADD14C,2.1016*%
%ADD15C,1.7272*%
%ADD16MACRO1,0.1016X-0.9398X0.9398X0.9398X0.9398*%
%ADD17C,1.9812*%
%ADD18MACRO1,0.2032X0.762X-0.762X-0.762X-0.762*%
%ADD19C,2.1020*%
%ADD20C,1.7280*%
%ADD21O,3.2031940000000003X1.703197*%
%ADD22C,1.5011*%
%ADD23C,0.0195*%

%LPD*%
D10*
G01*
X7772400Y685800D03*
D11*
G01*
X8280400Y685800D03*
D12*
G01*
X8280400Y685800D03*
D10*
G01*
X1866900Y520700D03*
D11*
G01*
X2374900Y520700D03*
D12*
G01*
X2374900Y520700D03*
D13*
G01*
X1123269Y7038675D03*
G01*
X1123269Y6688663D03*
G01*
X1123269Y4289127D03*
G01*
X1123269Y3939115D03*
G01*
X1123269Y1539575D03*
G01*
X1123269Y1189563D03*
D14*
G01*
X12862565Y3472769D03*
G01*
X13624565Y3472769D03*
G01*
X12875265Y4160685D03*
G01*
X13637265Y4160685D03*
G01*
X12875265Y4886703D03*
G01*
X13637265Y4886703D03*
G01*
X12875265Y7064753D03*
G01*
X13637265Y7064753D03*
G01*
X12875265Y6338735D03*
G01*
X13637265Y6338735D03*
G01*
X12875265Y5612719D03*
G01*
X13637265Y5612719D03*
G01*
X12875265Y7790769D03*
G01*
X13637265Y7790769D03*
D15*
G01*
X6698569Y5682569D03*
G01*
X6444569Y5682569D03*
G01*
X6698569Y4776726D03*
G01*
X6444569Y4776726D03*
D16*
G01*
X9812020Y593298D03*
D17*
G01*
X10066020Y593298D03*
D16*
G01*
X8900160Y593298D03*
D17*
G01*
X9154160Y593298D03*
D16*
G01*
X10723880Y593298D03*
D17*
G01*
X10977880Y593298D03*
D16*
G01*
X11635740Y593298D03*
D17*
G01*
X11889740Y593298D03*
D16*
G01*
X13459465Y593298D03*
D17*
G01*
X13713465Y593298D03*
D16*
G01*
X12547605Y593298D03*
D17*
G01*
X12801605Y593298D03*
D16*
G01*
X10723885Y2024969D03*
D17*
G01*
X10977885Y2024969D03*
D16*
G01*
X9812025Y2024969D03*
D17*
G01*
X10066025Y2024969D03*
D16*
G01*
X8900165Y2024969D03*
D17*
G01*
X9154165Y2024969D03*
D16*
G01*
X12547605Y2024969D03*
D17*
G01*
X12801605Y2024969D03*
D16*
G01*
X11635745Y2024969D03*
D17*
G01*
X11889745Y2024969D03*
D16*
G01*
X13459465Y2024969D03*
D17*
G01*
X13713465Y2024969D03*
D16*
G01*
X8036565Y2024969D03*
D17*
G01*
X8290565Y2024969D03*
D15*
G01*
X4501469Y7676469D03*
G01*
X4755469Y7676469D03*
G01*
X4501469Y7422469D03*
D18*
G01*
X4755469Y7422469D03*
D15*
G01*
X4755469Y7930469D03*
G01*
X4501469Y7930469D03*
G01*
X4501469Y5041219D03*
G01*
X4755469Y5041219D03*
G01*
X4501469Y4787219D03*
D18*
G01*
X4755469Y4787219D03*
D15*
G01*
X4755469Y5295219D03*
G01*
X4501469Y5295219D03*
G01*
X4501469Y2405969D03*
G01*
X4755469Y2405969D03*
G01*
X4501469Y2151969D03*
D18*
G01*
X4755469Y2151969D03*
D15*
G01*
X4755469Y2659969D03*
G01*
X4501469Y2659969D03*
D19*
G01*
X1047069Y7676464D03*
D14*
G01*
X1047069Y7930469D03*
G01*
X1047069Y8184469D03*
G01*
X1047069Y8438469D03*
G01*
X1047069Y5034869D03*
G01*
X1047069Y5288869D03*
G01*
X1047069Y5542869D03*
G01*
X1047069Y5796869D03*
G01*
X1047069Y2393269D03*
G01*
X1047069Y2647269D03*
G01*
X1047069Y2901269D03*
G01*
X1047069Y3155269D03*
D15*
G01*
X6635059Y7028769D03*
G01*
X5238059Y7028769D03*
G01*
X6685859Y7638369D03*
G01*
X5288859Y7638369D03*
G01*
X6685859Y8273369D03*
G01*
X5288859Y8273369D03*
G01*
X5580969Y3091779D03*
G01*
X5580969Y4488779D03*
G01*
X4965019Y3091779D03*
G01*
X4965019Y4488779D03*
G01*
X4349069Y3091779D03*
G01*
X4349069Y4488779D03*
G01*
X7104999Y2609179D03*
G01*
X5707999Y2609179D03*
G01*
X7104999Y1859879D03*
G01*
X5707999Y1859879D03*
G01*
X7104999Y1110579D03*
G01*
X5707999Y1110579D03*
G01*
X10811525Y3447369D03*
G01*
X12208525Y3447369D03*
G01*
X10811525Y4131355D03*
G01*
X12208525Y4131355D03*
G01*
X10811525Y4815344D03*
G01*
X12208525Y4815344D03*
G01*
X10811525Y6867296D03*
G01*
X12208525Y6867296D03*
G01*
X10811525Y6183315D03*
G01*
X12208525Y6183315D03*
G01*
X10811525Y5499331D03*
G01*
X12208525Y5499331D03*
G01*
X10811525Y8235269D03*
G01*
X12208525Y8235269D03*
G01*
X10811525Y7551282D03*
G01*
X12208525Y7551282D03*
G01*
X2503073Y8946469D03*
G01*
X2503073Y8692469D03*
G01*
X2503073Y8438469D03*
G01*
X2503073Y8184469D03*
D20*
G01*
X2503068Y7676464D03*
D15*
G01*
X2503073Y7422469D03*
G01*
X2503073Y7168469D03*
G01*
X2503073Y7930469D03*
G01*
X3528065Y8946469D03*
G01*
X3528065Y8692469D03*
G01*
X3528065Y8438469D03*
G01*
X3528065Y8184469D03*
G01*
X3528065Y7930469D03*
G01*
X3528065Y7676469D03*
G01*
X3528065Y7422469D03*
G01*
X3528065Y7168469D03*
G01*
X2503073Y6311219D03*
G01*
X2503073Y6057219D03*
G01*
X2503073Y5803219D03*
G01*
X2503073Y5549219D03*
G01*
X2503073Y5041219D03*
G01*
X2503073Y4787219D03*
G01*
X2503073Y4533219D03*
G01*
X2503073Y5295219D03*
G01*
X3528065Y6311219D03*
G01*
X3528065Y6057219D03*
G01*
X3528065Y5803219D03*
G01*
X3528065Y5549219D03*
G01*
X3528065Y5295219D03*
G01*
X3528065Y5041219D03*
G01*
X3528065Y4787219D03*
G01*
X3528065Y4533219D03*
G01*
X2503073Y3675969D03*
G01*
X2503073Y3421969D03*
G01*
X2503073Y3167969D03*
G01*
X2503073Y2913969D03*
G01*
X2503073Y2405969D03*
G01*
X2503073Y2151969D03*
G01*
X2503073Y1897969D03*
G01*
X2503073Y2659969D03*
G01*
X3528065Y3675969D03*
G01*
X3528065Y3421969D03*
G01*
X3528065Y3167969D03*
G01*
X3528065Y2913969D03*
G01*
X3528065Y2659969D03*
G01*
X3528065Y2405969D03*
G01*
X3528065Y2151969D03*
G01*
X3528065Y1897969D03*
D21*
G01*
X9060769Y7397069D03*
G01*
X9060769Y7143069D03*
G01*
X9060769Y6889069D03*
G01*
X9060769Y6635069D03*
G01*
X9060769Y6381069D03*
G01*
X9060769Y6127069D03*
G01*
X9060769Y5873069D03*
G01*
X9060769Y5619069D03*
G01*
X9060769Y5365069D03*
G01*
X9060769Y5111069D03*
G01*
X9060769Y4857069D03*
G01*
X9060769Y4603069D03*
G01*
X9060769Y4349069D03*
G01*
X9060769Y4095069D03*
G01*
X9822769Y4095069D03*
G01*
X9822769Y4349069D03*
G01*
X9822769Y4603069D03*
G01*
X9822769Y4857069D03*
G01*
X9822769Y5111069D03*
G01*
X9822769Y5365069D03*
G01*
X9822769Y5619069D03*
G01*
X9822769Y5873069D03*
G01*
X9822769Y6127069D03*
G01*
X9822769Y6381069D03*
G01*
X9822769Y6635069D03*
G01*
X9822769Y6889069D03*
G01*
X9822769Y7143069D03*
G01*
X9822769Y7397069D03*
D15*
G01*
X7421859Y4929789D03*
G01*
X7421859Y5554781D03*
G01*
X4222069Y3421969D03*
G01*
X4209369Y6050869D03*
G01*
X4209369Y8692469D03*
G01*
X8400369Y6127069D03*
G01*
X8400369Y6381069D03*
G01*
X8400369Y6635069D03*
G01*
X1504269Y2393269D03*
G01*
X2088469Y2393269D03*
D20*
G01*
X1504269Y5034848D03*
G01*
X2088469Y5034848D03*
G01*
X1504269Y7676443D03*
G01*
X2088469Y7676443D03*
D19*
G01*
X5415869Y2609179D03*
G01*
X5403169Y1859879D03*
G01*
X4093639Y2659969D03*
G01*
X4093639Y2405969D03*
G01*
X5250769Y5288869D03*
G01*
X4095069Y5047569D03*
G01*
X4092493Y7676469D03*
G01*
X5085669Y8006669D03*
G01*
X2825069Y6812351D03*
G01*
X3817729Y6815381D03*
G01*
X3807465Y4222069D03*
G01*
X3794841Y1542369D03*
G01*
X2825069Y3548969D03*
G01*
X12227565Y3028269D03*
G01*
X12646741Y2939369D03*
G01*
X12951541Y2825069D03*
G01*
X13192841Y2723469D03*
G01*
X13446765Y2545669D03*
G01*
X10551165Y7346269D03*
G01*
X12427153Y7866969D03*
G01*
X12579553Y6660469D03*
G01*
X12474681Y6375252D03*
G01*
X12444128Y5720669D03*
G01*
X12540823Y4886787D03*
G01*
X11393683Y3447369D03*
G01*
X10462265Y1555069D03*
G01*
X11389365Y1542369D03*
G01*
X12253041Y1567769D03*
G01*
X10634157Y3028269D03*
G01*
X11745041Y3917269D03*
G01*
X10208265Y4590369D03*
G01*
X10335265Y5111069D03*
G01*
X10068565Y3472769D03*
G01*
X10284465Y3256869D03*
G01*
X9446341Y6762069D03*
G01*
X9408165Y4920569D03*
G01*
X9738441Y8603569D03*
G01*
X7104994Y1501787D03*
G01*
X7801836Y1421498D03*
G01*
X2029465Y3688669D03*
G01*
X2016765Y6317569D03*
G01*
X1991365Y8946469D03*
G01*
X1724205Y1800405D03*
G01*
X1700611Y4539569D03*
G01*
X1727202Y7086597D03*
D22*
G01*
X7353300Y609600D03*
G01*
X5819261Y767666D03*
M02*
