G04 Layer: TopSilkscreenLayer*
G04 EasyEDA v6.5.22, 2023-02-01 00:42:27*
G04 7127771f42f84564bfbaeca74c76f867,1155796f3fab4927abb0b91c794f2a8a,10*
G04 Gerber Generator version 0.2*
G04 Scale: 100 percent, Rotated: No, Reflected: No *
G04 Dimensions in millimeters *
G04 leading zeros omitted , absolute positions ,4 integer and 5 decimal *
%FSLAX45Y45*%
%MOMM*%

%ADD10C,0.1524*%
%ADD11C,0.2540*%
%ADD12C,0.3810*%
%ADD13C,0.4000*%
%ADD14C,0.5000*%
%ADD15C,0.0168*%

%LPD*%
D10*
X2259479Y1054066D02*
G01*
X2342537Y1054066D01*
X2358285Y1048732D01*
X2363365Y1043652D01*
X2368445Y1033238D01*
X2368445Y1022824D01*
X2363365Y1012410D01*
X2358285Y1007076D01*
X2342537Y1001996D01*
X2332123Y1001996D01*
X2280307Y1088356D02*
G01*
X2274973Y1098516D01*
X2259479Y1114264D01*
X2368445Y1114264D01*
X2254359Y4268820D02*
G01*
X2337417Y4268820D01*
X2353165Y4263740D01*
X2358245Y4258406D01*
X2363579Y4247992D01*
X2363579Y4237832D01*
X2358245Y4227418D01*
X2353165Y4222084D01*
X2337417Y4217004D01*
X2327003Y4217004D01*
X2280267Y4308444D02*
G01*
X2275187Y4308444D01*
X2264773Y4313524D01*
X2259693Y4318858D01*
X2254359Y4329272D01*
X2254359Y4349846D01*
X2259693Y4360260D01*
X2264773Y4365594D01*
X2275187Y4370674D01*
X2285601Y4370674D01*
X2296015Y4365594D01*
X2311509Y4355180D01*
X2363579Y4303110D01*
X2363579Y4376008D01*
X7797987Y8499294D02*
G01*
X7803321Y8488880D01*
X7818815Y8473386D01*
X7709849Y8473386D01*
X4720777Y9287202D02*
G01*
X4715443Y9297616D01*
X4705029Y9308030D01*
X4694869Y9313110D01*
X4674041Y9313110D01*
X4663627Y9308030D01*
X4653213Y9297616D01*
X4647879Y9287202D01*
X4642799Y9271454D01*
X4642799Y9245546D01*
X4647879Y9230052D01*
X4653213Y9219638D01*
X4663627Y9209224D01*
X4674041Y9204144D01*
X4694869Y9204144D01*
X4705029Y9209224D01*
X4715443Y9219638D01*
X4720777Y9230052D01*
X4755067Y9292282D02*
G01*
X4765481Y9297616D01*
X4780975Y9313110D01*
X4780975Y9204144D01*
X4825679Y9313110D02*
G01*
X4882829Y9313110D01*
X4851587Y9271454D01*
X4867335Y9271454D01*
X4877749Y9266374D01*
X4882829Y9261294D01*
X4887909Y9245546D01*
X4887909Y9235132D01*
X4882829Y9219638D01*
X4872415Y9209224D01*
X4856921Y9204144D01*
X4841173Y9204144D01*
X4825679Y9209224D01*
X4820599Y9214304D01*
X4815265Y9224718D01*
X5558977Y9287202D02*
G01*
X5553643Y9297616D01*
X5543229Y9308030D01*
X5533069Y9313110D01*
X5512241Y9313110D01*
X5501827Y9308030D01*
X5491413Y9297616D01*
X5486079Y9287202D01*
X5480999Y9271454D01*
X5480999Y9245546D01*
X5486079Y9230052D01*
X5491413Y9219638D01*
X5501827Y9209224D01*
X5512241Y9204144D01*
X5533069Y9204144D01*
X5543229Y9209224D01*
X5553643Y9219638D01*
X5558977Y9230052D01*
X5593267Y9292282D02*
G01*
X5603681Y9297616D01*
X5619175Y9313110D01*
X5619175Y9204144D01*
X5705535Y9313110D02*
G01*
X5653465Y9240466D01*
X5731443Y9240466D01*
X5705535Y9313110D02*
G01*
X5705535Y9204144D01*
X4123877Y7394902D02*
G01*
X4118543Y7405316D01*
X4108129Y7415730D01*
X4097969Y7420810D01*
X4077141Y7420810D01*
X4066727Y7415730D01*
X4056313Y7405316D01*
X4050979Y7394902D01*
X4045899Y7379154D01*
X4045899Y7353246D01*
X4050979Y7337752D01*
X4056313Y7327338D01*
X4066727Y7316924D01*
X4077141Y7311844D01*
X4097969Y7311844D01*
X4108129Y7316924D01*
X4118543Y7327338D01*
X4123877Y7337752D01*
X4158167Y7399982D02*
G01*
X4168581Y7405316D01*
X4184075Y7420810D01*
X4184075Y7311844D01*
X4280849Y7420810D02*
G01*
X4228779Y7420810D01*
X4223699Y7374074D01*
X4228779Y7379154D01*
X4244273Y7384488D01*
X4260021Y7384488D01*
X4275515Y7379154D01*
X4285929Y7368994D01*
X4291009Y7353246D01*
X4291009Y7342832D01*
X4285929Y7327338D01*
X4275515Y7316924D01*
X4260021Y7311844D01*
X4244273Y7311844D01*
X4228779Y7316924D01*
X4223699Y7322004D01*
X4218365Y7332418D01*
X3032973Y7799191D02*
G01*
X3027639Y7809605D01*
X3017225Y7820019D01*
X3007065Y7825099D01*
X2986237Y7825099D01*
X2975823Y7820019D01*
X2965409Y7809605D01*
X2960075Y7799191D01*
X2954995Y7783443D01*
X2954995Y7757535D01*
X2960075Y7742041D01*
X2965409Y7731627D01*
X2975823Y7721213D01*
X2986237Y7716133D01*
X3007065Y7716133D01*
X3017225Y7721213D01*
X3027639Y7731627D01*
X3032973Y7742041D01*
X3067263Y7804271D02*
G01*
X3077677Y7809605D01*
X3093171Y7825099D01*
X3093171Y7716133D01*
X3189945Y7809605D02*
G01*
X3184611Y7820019D01*
X3169117Y7825099D01*
X3158703Y7825099D01*
X3142955Y7820019D01*
X3132795Y7804271D01*
X3127461Y7778363D01*
X3127461Y7752455D01*
X3132795Y7731627D01*
X3142955Y7721213D01*
X3158703Y7716133D01*
X3163783Y7716133D01*
X3179531Y7721213D01*
X3189945Y7731627D01*
X3195025Y7747121D01*
X3195025Y7752455D01*
X3189945Y7767949D01*
X3179531Y7778363D01*
X3163783Y7783443D01*
X3158703Y7783443D01*
X3142955Y7778363D01*
X3132795Y7767949D01*
X3127461Y7752455D01*
X3357994Y8848097D02*
G01*
X3357994Y8739131D01*
X3357994Y8848097D02*
G01*
X3394316Y8848097D01*
X3410064Y8843017D01*
X3420224Y8832603D01*
X3425558Y8822189D01*
X3430638Y8806441D01*
X3430638Y8780533D01*
X3425558Y8765039D01*
X3420224Y8754625D01*
X3410064Y8744211D01*
X3394316Y8739131D01*
X3357994Y8739131D01*
X3464928Y8827269D02*
G01*
X3475342Y8832603D01*
X3491090Y8848097D01*
X3491090Y8739131D01*
X3334699Y8360610D02*
G01*
X3334699Y8251644D01*
X3334699Y8360610D02*
G01*
X3371021Y8360610D01*
X3386769Y8355530D01*
X3396929Y8345116D01*
X3402263Y8334702D01*
X3407343Y8318954D01*
X3407343Y8293046D01*
X3402263Y8277552D01*
X3396929Y8267138D01*
X3386769Y8256724D01*
X3371021Y8251644D01*
X3334699Y8251644D01*
X3446967Y8334702D02*
G01*
X3446967Y8339782D01*
X3452047Y8350196D01*
X3457381Y8355530D01*
X3467795Y8360610D01*
X3488369Y8360610D01*
X3498783Y8355530D01*
X3504117Y8350196D01*
X3509197Y8339782D01*
X3509197Y8329368D01*
X3504117Y8318954D01*
X3493703Y8303460D01*
X3441633Y8251644D01*
X3514531Y8251644D01*
X9430699Y9516310D02*
G01*
X9430699Y9407344D01*
X9430699Y9516310D02*
G01*
X9467021Y9516310D01*
X9482769Y9511230D01*
X9492929Y9500816D01*
X9498263Y9490402D01*
X9503343Y9474654D01*
X9503343Y9448746D01*
X9498263Y9433252D01*
X9492929Y9422838D01*
X9482769Y9412424D01*
X9467021Y9407344D01*
X9430699Y9407344D01*
X9548047Y9516310D02*
G01*
X9605197Y9516310D01*
X9574209Y9474654D01*
X9589703Y9474654D01*
X9600117Y9469574D01*
X9605197Y9464494D01*
X9610531Y9448746D01*
X9610531Y9438332D01*
X9605197Y9422838D01*
X9594783Y9412424D01*
X9579289Y9407344D01*
X9563795Y9407344D01*
X9548047Y9412424D01*
X9542967Y9417504D01*
X9537633Y9427918D01*
X10192699Y9516310D02*
G01*
X10192699Y9407344D01*
X10192699Y9516310D02*
G01*
X10229021Y9516310D01*
X10244769Y9511230D01*
X10254929Y9500816D01*
X10260263Y9490402D01*
X10265343Y9474654D01*
X10265343Y9448746D01*
X10260263Y9433252D01*
X10254929Y9422838D01*
X10244769Y9412424D01*
X10229021Y9407344D01*
X10192699Y9407344D01*
X10351703Y9516310D02*
G01*
X10299633Y9443666D01*
X10377611Y9443666D01*
X10351703Y9516310D02*
G01*
X10351703Y9407344D01*
X10954699Y9516310D02*
G01*
X10954699Y9407344D01*
X10954699Y9516310D02*
G01*
X10991021Y9516310D01*
X11006769Y9511230D01*
X11016929Y9500816D01*
X11022263Y9490402D01*
X11027343Y9474654D01*
X11027343Y9448746D01*
X11022263Y9433252D01*
X11016929Y9422838D01*
X11006769Y9412424D01*
X10991021Y9407344D01*
X10954699Y9407344D01*
X11124117Y9516310D02*
G01*
X11072047Y9516310D01*
X11066967Y9469574D01*
X11072047Y9474654D01*
X11087795Y9479988D01*
X11103289Y9479988D01*
X11118783Y9474654D01*
X11129197Y9464494D01*
X11134531Y9448746D01*
X11134531Y9438332D01*
X11129197Y9422838D01*
X11118783Y9412424D01*
X11103289Y9407344D01*
X11087795Y9407344D01*
X11072047Y9412424D01*
X11066967Y9417504D01*
X11061633Y9427918D01*
X11716699Y9516310D02*
G01*
X11716699Y9407344D01*
X11716699Y9516310D02*
G01*
X11753021Y9516310D01*
X11768769Y9511230D01*
X11778929Y9500816D01*
X11784263Y9490402D01*
X11789343Y9474654D01*
X11789343Y9448746D01*
X11784263Y9433252D01*
X11778929Y9422838D01*
X11768769Y9412424D01*
X11753021Y9407344D01*
X11716699Y9407344D01*
X11886117Y9500816D02*
G01*
X11880783Y9511230D01*
X11865289Y9516310D01*
X11854875Y9516310D01*
X11839381Y9511230D01*
X11828967Y9495482D01*
X11823633Y9469574D01*
X11823633Y9443666D01*
X11828967Y9422838D01*
X11839381Y9412424D01*
X11854875Y9407344D01*
X11860209Y9407344D01*
X11875703Y9412424D01*
X11886117Y9422838D01*
X11891197Y9438332D01*
X11891197Y9443666D01*
X11886117Y9459160D01*
X11875703Y9469574D01*
X11860209Y9474654D01*
X11854875Y9474654D01*
X11839381Y9469574D01*
X11828967Y9459160D01*
X11823633Y9443666D01*
X12478699Y9516310D02*
G01*
X12478699Y9407344D01*
X12478699Y9516310D02*
G01*
X12515021Y9516310D01*
X12530769Y9511230D01*
X12540929Y9500816D01*
X12546263Y9490402D01*
X12551343Y9474654D01*
X12551343Y9448746D01*
X12546263Y9433252D01*
X12540929Y9422838D01*
X12530769Y9412424D01*
X12515021Y9407344D01*
X12478699Y9407344D01*
X12658531Y9516310D02*
G01*
X12606461Y9407344D01*
X12585633Y9516310D02*
G01*
X12658531Y9516310D01*
X12096976Y2032279D02*
G01*
X12096976Y2141245D01*
X12096976Y2032279D02*
G01*
X12060654Y2032279D01*
X12044906Y2037359D01*
X12034746Y2047773D01*
X12029412Y2058187D01*
X12024332Y2073935D01*
X12024332Y2099843D01*
X12029412Y2115337D01*
X12034746Y2125751D01*
X12044906Y2136165D01*
X12060654Y2141245D01*
X12096976Y2141245D01*
X11963880Y2032279D02*
G01*
X11979628Y2037359D01*
X11984708Y2047773D01*
X11984708Y2058187D01*
X11979628Y2068601D01*
X11969214Y2073935D01*
X11948386Y2079015D01*
X11932892Y2084095D01*
X11922478Y2094509D01*
X11917144Y2104923D01*
X11917144Y2120671D01*
X11922478Y2131085D01*
X11927558Y2136165D01*
X11943306Y2141245D01*
X11963880Y2141245D01*
X11979628Y2136165D01*
X11984708Y2131085D01*
X11990042Y2120671D01*
X11990042Y2104923D01*
X11984708Y2094509D01*
X11974294Y2084095D01*
X11958800Y2079015D01*
X11937972Y2073935D01*
X11927558Y2068601D01*
X11922478Y2058187D01*
X11922478Y2047773D01*
X11927558Y2037359D01*
X11943306Y2032279D01*
X11963880Y2032279D01*
X8921981Y2162279D02*
G01*
X8921981Y2271245D01*
X8921981Y2162279D02*
G01*
X8885659Y2162279D01*
X8869911Y2167359D01*
X8859751Y2177773D01*
X8854417Y2188187D01*
X8849337Y2203935D01*
X8849337Y2229843D01*
X8854417Y2245337D01*
X8859751Y2255751D01*
X8869911Y2266165D01*
X8885659Y2271245D01*
X8921981Y2271245D01*
X8747483Y2198601D02*
G01*
X8752563Y2214095D01*
X8762977Y2224509D01*
X8778471Y2229843D01*
X8783805Y2229843D01*
X8799299Y2224509D01*
X8809713Y2214095D01*
X8815047Y2198601D01*
X8815047Y2193521D01*
X8809713Y2177773D01*
X8799299Y2167359D01*
X8783805Y2162279D01*
X8778471Y2162279D01*
X8762977Y2167359D01*
X8752563Y2177773D01*
X8747483Y2198601D01*
X8747483Y2224509D01*
X8752563Y2250671D01*
X8762977Y2266165D01*
X8778471Y2271245D01*
X8788885Y2271245D01*
X8804633Y2266165D01*
X8809713Y2255751D01*
X1251899Y6519110D02*
G01*
X1251899Y6410144D01*
X1317431Y6519110D02*
G01*
X1307017Y6514030D01*
X1296603Y6503616D01*
X1291269Y6493202D01*
X1286189Y6477454D01*
X1286189Y6451546D01*
X1291269Y6436052D01*
X1296603Y6425638D01*
X1307017Y6415224D01*
X1317431Y6410144D01*
X1338259Y6410144D01*
X1348419Y6415224D01*
X1358833Y6425638D01*
X1364167Y6436052D01*
X1369247Y6451546D01*
X1369247Y6477454D01*
X1364167Y6493202D01*
X1358833Y6503616D01*
X1348419Y6514030D01*
X1338259Y6519110D01*
X1317431Y6519110D01*
X1408871Y6493202D02*
G01*
X1408871Y6498282D01*
X1413951Y6508696D01*
X1419285Y6514030D01*
X1429699Y6519110D01*
X1450273Y6519110D01*
X1460687Y6514030D01*
X1466021Y6508696D01*
X1471101Y6498282D01*
X1471101Y6487868D01*
X1466021Y6477454D01*
X1455607Y6461960D01*
X1403537Y6410144D01*
X1476435Y6410144D01*
X1251897Y2054077D02*
G01*
X1251897Y2163043D01*
X1251897Y2054077D02*
G01*
X1210241Y2163043D01*
X1168839Y2054077D02*
G01*
X1210241Y2163043D01*
X1168839Y2054077D02*
G01*
X1168839Y2163043D01*
X1082479Y2054077D02*
G01*
X1134549Y2126721D01*
X1056571Y2126721D01*
X1082479Y2054077D02*
G01*
X1082479Y2163043D01*
X6553133Y6638236D02*
G01*
X6558213Y6627822D01*
X6568627Y6617408D01*
X6579041Y6612074D01*
X6594789Y6606994D01*
X6620697Y6606994D01*
X6636191Y6612074D01*
X6646605Y6617408D01*
X6657019Y6627822D01*
X6662099Y6638236D01*
X6662099Y6659064D01*
X6657019Y6669224D01*
X6646605Y6679638D01*
X6636191Y6684972D01*
X6620697Y6690052D01*
X6594789Y6690052D01*
X6579041Y6684972D01*
X6568627Y6679638D01*
X6558213Y6669224D01*
X6553133Y6659064D01*
X6553133Y6638236D01*
X6641525Y6653730D02*
G01*
X6672513Y6684972D01*
X6573961Y6724342D02*
G01*
X6568627Y6734756D01*
X6553133Y6750504D01*
X6662099Y6750504D01*
X4025833Y6198816D02*
G01*
X4134799Y6198816D01*
X4025833Y6162494D02*
G01*
X4025833Y6235138D01*
X4046661Y6269428D02*
G01*
X4041327Y6279842D01*
X4025833Y6295590D01*
X4134799Y6295590D01*
X11769054Y930127D02*
G01*
X11769054Y1039093D01*
X11805376Y930127D02*
G01*
X11732732Y930127D01*
X11693108Y956035D02*
G01*
X11693108Y950955D01*
X11688028Y940541D01*
X11682694Y935207D01*
X11672280Y930127D01*
X11651706Y930127D01*
X11641292Y935207D01*
X11635958Y940541D01*
X11630878Y950955D01*
X11630878Y961369D01*
X11635958Y971783D01*
X11646372Y987277D01*
X11698442Y1039093D01*
X11625544Y1039093D01*
X8914058Y930130D02*
G01*
X8914058Y1039096D01*
X8950380Y930130D02*
G01*
X8877736Y930130D01*
X8833032Y930130D02*
G01*
X8775882Y930130D01*
X8806870Y971786D01*
X8791376Y971786D01*
X8780962Y976866D01*
X8775882Y981946D01*
X8770548Y997694D01*
X8770548Y1008108D01*
X8775882Y1023602D01*
X8786296Y1034016D01*
X8801790Y1039096D01*
X8817284Y1039096D01*
X8833032Y1034016D01*
X8838112Y1028936D01*
X8843446Y1018522D01*
X3333998Y9605210D02*
G01*
X3333998Y9496244D01*
X3333998Y9605210D02*
G01*
X3380734Y9605210D01*
X3396228Y9600130D01*
X3401562Y9594796D01*
X3406642Y9584382D01*
X3406642Y9573968D01*
X3401562Y9563554D01*
X3396228Y9558474D01*
X3380734Y9553394D01*
X3333998Y9553394D01*
X3370320Y9553394D02*
G01*
X3406642Y9496244D01*
X3440932Y9584382D02*
G01*
X3451346Y9589716D01*
X3467094Y9605210D01*
X3467094Y9496244D01*
X3527292Y9605210D02*
G01*
X3511798Y9600130D01*
X3506464Y9589716D01*
X3506464Y9579302D01*
X3511798Y9568888D01*
X3521958Y9563554D01*
X3542786Y9558474D01*
X3558534Y9553394D01*
X3568948Y9542980D01*
X3574028Y9532566D01*
X3574028Y9516818D01*
X3568948Y9506404D01*
X3563614Y9501324D01*
X3548120Y9496244D01*
X3527292Y9496244D01*
X3511798Y9501324D01*
X3506464Y9506404D01*
X3501384Y9516818D01*
X3501384Y9532566D01*
X3506464Y9542980D01*
X3516878Y9553394D01*
X3532372Y9558474D01*
X3553200Y9563554D01*
X3563614Y9568888D01*
X3568948Y9579302D01*
X3568948Y9589716D01*
X3563614Y9600130D01*
X3548120Y9605210D01*
X3527292Y9605210D01*
X1847783Y8574793D02*
G01*
X1956749Y8574793D01*
X1847783Y8574793D02*
G01*
X1847783Y8621529D01*
X1852863Y8637023D01*
X1858197Y8642357D01*
X1868611Y8647437D01*
X1879025Y8647437D01*
X1889439Y8642357D01*
X1894519Y8637023D01*
X1899599Y8621529D01*
X1899599Y8574793D01*
X1899599Y8611115D02*
G01*
X1956749Y8647437D01*
X1868611Y8681727D02*
G01*
X1863277Y8692141D01*
X1847783Y8707889D01*
X1956749Y8707889D01*
X1884105Y8809743D02*
G01*
X1899599Y8804409D01*
X1910013Y8793995D01*
X1915347Y8778501D01*
X1915347Y8773167D01*
X1910013Y8757673D01*
X1899599Y8747259D01*
X1884105Y8742179D01*
X1879025Y8742179D01*
X1863277Y8747259D01*
X1852863Y8757673D01*
X1847783Y8773167D01*
X1847783Y8778501D01*
X1852863Y8793995D01*
X1863277Y8804409D01*
X1884105Y8809743D01*
X1910013Y8809743D01*
X1936175Y8804409D01*
X1951669Y8793995D01*
X1956749Y8778501D01*
X1956749Y8768087D01*
X1951669Y8752593D01*
X1941255Y8747259D01*
X3821475Y5014089D02*
G01*
X3930441Y5014089D01*
X3821475Y5014089D02*
G01*
X3821475Y5060825D01*
X3826555Y5076319D01*
X3831889Y5081653D01*
X3842303Y5086733D01*
X3852717Y5086733D01*
X3863131Y5081653D01*
X3868211Y5076319D01*
X3873291Y5060825D01*
X3873291Y5014089D01*
X3873291Y5050411D02*
G01*
X3930441Y5086733D01*
X3847383Y5126357D02*
G01*
X3842303Y5126357D01*
X3831889Y5131437D01*
X3826555Y5136771D01*
X3821475Y5147185D01*
X3821475Y5167759D01*
X3826555Y5178173D01*
X3831889Y5183507D01*
X3842303Y5188587D01*
X3852717Y5188587D01*
X3863131Y5183507D01*
X3878625Y5173093D01*
X3930441Y5121023D01*
X3930441Y5193921D01*
X3821475Y5259199D02*
G01*
X3826555Y5243705D01*
X3842303Y5233291D01*
X3868211Y5228211D01*
X3883705Y5228211D01*
X3909867Y5233291D01*
X3925361Y5243705D01*
X3930441Y5259199D01*
X3930441Y5269613D01*
X3925361Y5285361D01*
X3909867Y5295775D01*
X3883705Y5300855D01*
X3868211Y5300855D01*
X3842303Y5295775D01*
X3826555Y5285361D01*
X3821475Y5269613D01*
X3821475Y5259199D01*
X3371476Y5014087D02*
G01*
X3480442Y5014087D01*
X3371476Y5014087D02*
G01*
X3371476Y5060822D01*
X3376556Y5076317D01*
X3381890Y5081651D01*
X3392304Y5086730D01*
X3402718Y5086730D01*
X3413132Y5081651D01*
X3418212Y5076317D01*
X3423292Y5060822D01*
X3423292Y5014087D01*
X3423292Y5050409D02*
G01*
X3480442Y5086730D01*
X3397384Y5126354D02*
G01*
X3392304Y5126354D01*
X3381890Y5131435D01*
X3376556Y5136769D01*
X3371476Y5147182D01*
X3371476Y5167756D01*
X3376556Y5178170D01*
X3381890Y5183504D01*
X3392304Y5188585D01*
X3402718Y5188585D01*
X3413132Y5183504D01*
X3428626Y5173090D01*
X3480442Y5121020D01*
X3480442Y5193919D01*
X3392304Y5228209D02*
G01*
X3386970Y5238622D01*
X3371476Y5254117D01*
X3480442Y5254117D01*
X5722312Y6823910D02*
G01*
X5722312Y6714944D01*
X5722312Y6823910D02*
G01*
X5769048Y6823910D01*
X5784542Y6818830D01*
X5789876Y6813496D01*
X5794956Y6803082D01*
X5794956Y6792668D01*
X5789876Y6782254D01*
X5784542Y6777174D01*
X5769048Y6772094D01*
X5722312Y6772094D01*
X5758634Y6772094D02*
G01*
X5794956Y6714944D01*
X5834580Y6798002D02*
G01*
X5834580Y6803082D01*
X5839660Y6813496D01*
X5844994Y6818830D01*
X5855408Y6823910D01*
X5875982Y6823910D01*
X5886396Y6818830D01*
X5891730Y6813496D01*
X5896810Y6803082D01*
X5896810Y6792668D01*
X5891730Y6782254D01*
X5881316Y6766760D01*
X5829246Y6714944D01*
X5902144Y6714944D01*
X5941514Y6798002D02*
G01*
X5941514Y6803082D01*
X5946848Y6813496D01*
X5951928Y6818830D01*
X5962342Y6823910D01*
X5983170Y6823910D01*
X5993584Y6818830D01*
X5998664Y6813496D01*
X6003998Y6803082D01*
X6003998Y6792668D01*
X5998664Y6782254D01*
X5988250Y6766760D01*
X5936434Y6714944D01*
X6009078Y6714944D01*
X5747712Y6309560D02*
G01*
X5747712Y6200594D01*
X5747712Y6309560D02*
G01*
X5794448Y6309560D01*
X5809942Y6304480D01*
X5815276Y6299146D01*
X5820356Y6288732D01*
X5820356Y6278318D01*
X5815276Y6267904D01*
X5809942Y6262824D01*
X5794448Y6257744D01*
X5747712Y6257744D01*
X5784034Y6257744D02*
G01*
X5820356Y6200594D01*
X5859980Y6283652D02*
G01*
X5859980Y6288732D01*
X5865060Y6299146D01*
X5870394Y6304480D01*
X5880808Y6309560D01*
X5901382Y6309560D01*
X5911796Y6304480D01*
X5917130Y6299146D01*
X5922210Y6288732D01*
X5922210Y6278318D01*
X5917130Y6267904D01*
X5906716Y6252410D01*
X5854646Y6200594D01*
X5927544Y6200594D01*
X5972248Y6309560D02*
G01*
X6029398Y6309560D01*
X5998156Y6267904D01*
X6013650Y6267904D01*
X6024064Y6262824D01*
X6029398Y6257744D01*
X6034478Y6241996D01*
X6034478Y6231582D01*
X6029398Y6216088D01*
X6018984Y6205674D01*
X6003236Y6200594D01*
X5987742Y6200594D01*
X5972248Y6205674D01*
X5966914Y6210754D01*
X5961834Y6221168D01*
X5811187Y5807910D02*
G01*
X5811187Y5698944D01*
X5811187Y5807910D02*
G01*
X5857923Y5807910D01*
X5873417Y5802830D01*
X5878751Y5797496D01*
X5883831Y5787082D01*
X5883831Y5776668D01*
X5878751Y5766254D01*
X5873417Y5761174D01*
X5857923Y5756094D01*
X5811187Y5756094D01*
X5847509Y5756094D02*
G01*
X5883831Y5698944D01*
X5923455Y5782002D02*
G01*
X5923455Y5787082D01*
X5928535Y5797496D01*
X5933869Y5802830D01*
X5944283Y5807910D01*
X5964857Y5807910D01*
X5975271Y5802830D01*
X5980605Y5797496D01*
X5985685Y5787082D01*
X5985685Y5776668D01*
X5980605Y5766254D01*
X5970191Y5750760D01*
X5918121Y5698944D01*
X5991019Y5698944D01*
X6077125Y5807910D02*
G01*
X6025309Y5735266D01*
X6103287Y5735266D01*
X6077125Y5807910D02*
G01*
X6077125Y5698944D01*
X6556585Y1913511D02*
G01*
X6556585Y1804545D01*
X6556585Y1913511D02*
G01*
X6603321Y1913511D01*
X6618815Y1908431D01*
X6624149Y1903097D01*
X6629229Y1892683D01*
X6629229Y1882269D01*
X6624149Y1871855D01*
X6618815Y1866775D01*
X6603321Y1861695D01*
X6556585Y1861695D01*
X6592907Y1861695D02*
G01*
X6629229Y1804545D01*
X6668853Y1887603D02*
G01*
X6668853Y1892683D01*
X6673933Y1903097D01*
X6679267Y1908431D01*
X6689681Y1913511D01*
X6710255Y1913511D01*
X6720669Y1908431D01*
X6726003Y1903097D01*
X6731083Y1892683D01*
X6731083Y1882269D01*
X6726003Y1871855D01*
X6715589Y1856361D01*
X6663519Y1804545D01*
X6736417Y1804545D01*
X6832937Y1913511D02*
G01*
X6781121Y1913511D01*
X6775787Y1866775D01*
X6781121Y1871855D01*
X6796615Y1877189D01*
X6812109Y1877189D01*
X6827857Y1871855D01*
X6838271Y1861695D01*
X6843351Y1845947D01*
X6843351Y1835533D01*
X6838271Y1820039D01*
X6827857Y1809625D01*
X6812109Y1804545D01*
X6796615Y1804545D01*
X6781121Y1809625D01*
X6775787Y1814705D01*
X6770707Y1825119D01*
X6551584Y1433512D02*
G01*
X6551584Y1324546D01*
X6551584Y1433512D02*
G01*
X6598320Y1433512D01*
X6613814Y1428432D01*
X6619148Y1423098D01*
X6624228Y1412684D01*
X6624228Y1402270D01*
X6619148Y1391856D01*
X6613814Y1386776D01*
X6598320Y1381696D01*
X6551584Y1381696D01*
X6587906Y1381696D02*
G01*
X6624228Y1324546D01*
X6663852Y1407604D02*
G01*
X6663852Y1412684D01*
X6668932Y1423098D01*
X6674266Y1428432D01*
X6684680Y1433512D01*
X6705254Y1433512D01*
X6715668Y1428432D01*
X6721002Y1423098D01*
X6726082Y1412684D01*
X6726082Y1402270D01*
X6721002Y1391856D01*
X6710588Y1376362D01*
X6658518Y1324546D01*
X6731416Y1324546D01*
X6827936Y1418018D02*
G01*
X6822856Y1428432D01*
X6807108Y1433512D01*
X6796694Y1433512D01*
X6781200Y1428432D01*
X6770786Y1412684D01*
X6765706Y1386776D01*
X6765706Y1360868D01*
X6770786Y1340040D01*
X6781200Y1329626D01*
X6796694Y1324546D01*
X6802028Y1324546D01*
X6817522Y1329626D01*
X6827936Y1340040D01*
X6833270Y1355534D01*
X6833270Y1360868D01*
X6827936Y1376362D01*
X6817522Y1386776D01*
X6802028Y1391856D01*
X6796694Y1391856D01*
X6781200Y1386776D01*
X6770786Y1376362D01*
X6765706Y1360868D01*
X3121591Y1918512D02*
G01*
X3121591Y1809546D01*
X3121591Y1918512D02*
G01*
X3168327Y1918512D01*
X3183821Y1913432D01*
X3189155Y1908098D01*
X3194235Y1897684D01*
X3194235Y1887270D01*
X3189155Y1876856D01*
X3183821Y1871776D01*
X3168327Y1866696D01*
X3121591Y1866696D01*
X3157913Y1866696D02*
G01*
X3194235Y1809546D01*
X3233859Y1892604D02*
G01*
X3233859Y1897684D01*
X3238939Y1908098D01*
X3244273Y1913432D01*
X3254687Y1918512D01*
X3275261Y1918512D01*
X3285675Y1913432D01*
X3291009Y1908098D01*
X3296089Y1897684D01*
X3296089Y1887270D01*
X3291009Y1876856D01*
X3280595Y1861362D01*
X3228525Y1809546D01*
X3301423Y1809546D01*
X3408357Y1918512D02*
G01*
X3356541Y1809546D01*
X3335713Y1918512D02*
G01*
X3408357Y1918512D01*
X8909999Y6214310D02*
G01*
X8909999Y6136332D01*
X8915079Y6120838D01*
X8925493Y6110424D01*
X8941241Y6105344D01*
X8951655Y6105344D01*
X8967149Y6110424D01*
X8977563Y6120838D01*
X8982643Y6136332D01*
X8982643Y6214310D01*
X9016933Y6193482D02*
G01*
X9027347Y6198816D01*
X9043095Y6214310D01*
X9043095Y6105344D01*
X12109376Y6243304D02*
G01*
X12109376Y6165326D01*
X12114456Y6149832D01*
X12124870Y6139418D01*
X12140618Y6134338D01*
X12151032Y6134338D01*
X12166526Y6139418D01*
X12176940Y6149832D01*
X12182020Y6165326D01*
X12182020Y6243304D01*
X12216310Y6222476D02*
G01*
X12226724Y6227810D01*
X12242472Y6243304D01*
X12242472Y6134338D01*
X12338992Y6243304D02*
G01*
X12287176Y6243304D01*
X12281842Y6196568D01*
X12287176Y6201648D01*
X12302670Y6206982D01*
X12318164Y6206982D01*
X12333912Y6201648D01*
X12344326Y6191488D01*
X12349406Y6175740D01*
X12349406Y6165326D01*
X12344326Y6149832D01*
X12333912Y6139418D01*
X12318164Y6134338D01*
X12302670Y6134338D01*
X12287176Y6139418D01*
X12281842Y6144498D01*
X12276762Y6154912D01*
X4820599Y8398710D02*
G01*
X4820599Y8320732D01*
X4825679Y8305238D01*
X4836093Y8294824D01*
X4851841Y8289744D01*
X4862255Y8289744D01*
X4877749Y8294824D01*
X4888163Y8305238D01*
X4893243Y8320732D01*
X4893243Y8398710D01*
X5000431Y8398710D02*
G01*
X4948361Y8289744D01*
X4927533Y8398710D02*
G01*
X5000431Y8398710D01*
X4737290Y1542221D02*
G01*
X4737290Y1464243D01*
X4742370Y1448749D01*
X4752784Y1438335D01*
X4768532Y1433255D01*
X4778946Y1433255D01*
X4794440Y1438335D01*
X4804854Y1448749D01*
X4809934Y1464243D01*
X4809934Y1542221D01*
X4870386Y1542221D02*
G01*
X4854638Y1537141D01*
X4849558Y1526727D01*
X4849558Y1516313D01*
X4854638Y1505899D01*
X4865052Y1500565D01*
X4885880Y1495485D01*
X4901374Y1490405D01*
X4911788Y1479991D01*
X4917122Y1469577D01*
X4917122Y1453829D01*
X4911788Y1443415D01*
X4906708Y1438335D01*
X4890960Y1433255D01*
X4870386Y1433255D01*
X4854638Y1438335D01*
X4849558Y1443415D01*
X4844224Y1453829D01*
X4844224Y1469577D01*
X4849558Y1479991D01*
X4859972Y1490405D01*
X4875466Y1495485D01*
X4896294Y1500565D01*
X4906708Y1505899D01*
X4911788Y1516313D01*
X4911788Y1526727D01*
X4906708Y1537141D01*
X4890960Y1542221D01*
X4870386Y1542221D01*
D11*
X2958995Y874996D02*
G01*
X2958995Y1128996D01*
X2958995Y1255996D01*
X2400195Y1255996D01*
X2400195Y747996D01*
X2958995Y747996D01*
X2958995Y874996D01*
X2831995Y874996D01*
X2831995Y1128996D01*
X2958995Y1128996D01*
X2953994Y4089991D02*
G01*
X2953994Y4343991D01*
X2953994Y4470991D01*
X2395194Y4470991D01*
X2395194Y3962991D01*
X2953994Y3962991D01*
X2953994Y4089991D01*
X2826994Y4089991D01*
X2826994Y4343991D01*
X2953994Y4343991D01*
X7208199Y8067494D02*
G01*
X7208199Y8931094D01*
X7284399Y9007294D02*
G01*
X7589199Y9007294D01*
X7652699Y9007294D01*
X7652699Y7991294D01*
X7589199Y7991294D01*
X7297099Y7991294D01*
X7589199Y7991294D02*
G01*
X7589199Y9007294D01*
X4769799Y9172394D02*
G01*
X4515799Y9172394D01*
X4769799Y8918394D02*
G01*
X4515799Y8918394D01*
X5353999Y9172394D02*
G01*
X5607999Y9172394D01*
X5607999Y8918394D02*
G01*
X5353999Y8918394D01*
X4045899Y7254694D02*
G01*
X4045899Y6772094D01*
X4122099Y7254694D02*
G01*
X4122099Y7102294D01*
X4122099Y6899094D02*
G01*
X4122099Y6772094D01*
X4198299Y7203894D02*
G01*
X4198299Y7102294D01*
X4198299Y6899094D02*
G01*
X4198299Y6822894D01*
X4249099Y7127694D02*
G01*
X4249099Y7051494D01*
X4249099Y6949894D02*
G01*
X4249099Y6873694D01*
X3893499Y7153094D02*
G01*
X3995099Y7153094D01*
X3944299Y7203894D02*
G01*
X3944299Y7102294D01*
X2954995Y7658983D02*
G01*
X2954995Y7176383D01*
X3031195Y7658983D02*
G01*
X3031195Y7506583D01*
X3031195Y7303383D02*
G01*
X3031195Y7176383D01*
X3107395Y7608183D02*
G01*
X3107395Y7506583D01*
X3107395Y7303383D02*
G01*
X3107395Y7227183D01*
X3158195Y7531983D02*
G01*
X3158195Y7455783D01*
X3158195Y7354183D02*
G01*
X3158195Y7277983D01*
X2802595Y7557383D02*
G01*
X2904195Y7557383D01*
X2853395Y7608183D02*
G01*
X2853395Y7506583D01*
X3566868Y8415581D02*
G01*
X3566868Y8695583D01*
X3662794Y8415581D02*
G01*
X3662794Y8695583D01*
X3662794Y8695583D02*
G01*
X3041195Y8695283D01*
X3040494Y8415281D02*
G01*
X3040494Y8695283D01*
X3662794Y8415581D02*
G01*
X3041195Y8415281D01*
X3675494Y8554981D02*
G01*
X3759659Y8554981D01*
X3035520Y8552682D02*
G01*
X2949280Y8552682D01*
X3543574Y7928094D02*
G01*
X3543574Y8208096D01*
X3639499Y7928094D02*
G01*
X3639499Y8208096D01*
X3639499Y8208096D02*
G01*
X3017900Y8207796D01*
X3017199Y7927794D02*
G01*
X3017199Y8207796D01*
X3639499Y7928094D02*
G01*
X3017900Y7927794D01*
X3652199Y8067494D02*
G01*
X3736365Y8067494D01*
X3012226Y8065195D02*
G01*
X2925986Y8065195D01*
X9150700Y8723894D02*
G01*
X9710699Y8723894D01*
X9710699Y8873893D02*
G01*
X9710699Y8023895D01*
X9150700Y8023895D01*
X9150700Y8873893D01*
X9710699Y8873893D01*
X9150700Y8763894D02*
G01*
X9710699Y8763894D01*
X9430699Y8873893D02*
G01*
X9430699Y9033893D01*
X9430699Y7913895D02*
G01*
X9430699Y8023895D01*
X9150700Y8743894D02*
G01*
X9710699Y8743894D01*
X9912700Y8723894D02*
G01*
X10472699Y8723894D01*
X10472699Y8873893D02*
G01*
X10472699Y8023895D01*
X9912700Y8023895D01*
X9912700Y8873893D01*
X10472699Y8873893D01*
X9912700Y8763894D02*
G01*
X10472699Y8763894D01*
X10192699Y8873893D02*
G01*
X10192699Y9033893D01*
X10192699Y7913895D02*
G01*
X10192699Y8023895D01*
X9912700Y8743894D02*
G01*
X10472699Y8743894D01*
X10674700Y8723894D02*
G01*
X11234699Y8723894D01*
X11234699Y8873893D02*
G01*
X11234699Y8023895D01*
X10674700Y8023895D01*
X10674700Y8873893D01*
X11234699Y8873893D01*
X10674700Y8763894D02*
G01*
X11234699Y8763894D01*
X10954699Y8873893D02*
G01*
X10954699Y9033893D01*
X10954699Y7913895D02*
G01*
X10954699Y8023895D01*
X10674700Y8743894D02*
G01*
X11234699Y8743894D01*
X11436700Y8723894D02*
G01*
X11996699Y8723894D01*
X11996699Y8873893D02*
G01*
X11996699Y8023895D01*
X11436700Y8023895D01*
X11436700Y8873893D01*
X11996699Y8873893D01*
X11436700Y8763894D02*
G01*
X11996699Y8763894D01*
X11716699Y8873893D02*
G01*
X11716699Y9033893D01*
X11716699Y7913895D02*
G01*
X11716699Y8023895D01*
X11436700Y8743894D02*
G01*
X11996699Y8743894D01*
X12198700Y8723894D02*
G01*
X12758699Y8723894D01*
X12758699Y8873893D02*
G01*
X12758699Y8023895D01*
X12198700Y8023895D01*
X12198700Y8873893D01*
X12758699Y8873893D01*
X12198700Y8763894D02*
G01*
X12758699Y8763894D01*
X12478699Y8873893D02*
G01*
X12478699Y9033893D01*
X12478699Y7913895D02*
G01*
X12478699Y8023895D01*
X12198700Y8743894D02*
G01*
X12758699Y8743894D01*
X11969976Y2426995D02*
G01*
X11969976Y2172995D01*
X12350976Y2299995D02*
G01*
X12477976Y2299995D01*
X11842976Y2299995D02*
G01*
X11715976Y2299995D01*
X12350976Y2172995D02*
G01*
X11842976Y2172995D01*
X11842976Y2426995D01*
X12350976Y2426995D01*
X12350976Y2172995D01*
X8794981Y2556995D02*
G01*
X8794981Y2302995D01*
X9175981Y2429995D02*
G01*
X9302981Y2429995D01*
X8667981Y2429995D02*
G01*
X8540981Y2429995D01*
X9175981Y2302995D02*
G01*
X8667981Y2302995D01*
X8667981Y2556995D01*
X9175981Y2556995D01*
X9175981Y2302995D01*
D12*
X1759899Y5235394D02*
G01*
X1734499Y5235394D01*
X1251899Y5235394D01*
X743899Y5235394D01*
X743899Y5235394D01*
X743899Y6352994D01*
X1759899Y6352994D01*
X1759899Y5235394D01*
X743897Y3337793D02*
G01*
X769297Y3337793D01*
X1251897Y3337793D01*
X1759897Y3337793D01*
X1759897Y3337793D01*
X1759897Y2220193D01*
X743897Y2220193D01*
X743897Y3337793D01*
D11*
X7138349Y6424114D02*
G01*
X7138349Y6840674D01*
X6998649Y6365694D02*
G01*
X6998649Y6406334D01*
X6998649Y6604454D02*
G01*
X6998649Y6660334D01*
X6998649Y6858454D02*
G01*
X6998649Y6899094D01*
X4611049Y5979614D02*
G01*
X4611049Y6396174D01*
X4471349Y5921194D02*
G01*
X4471349Y5961834D01*
X4471349Y6159954D02*
G01*
X4471349Y6215834D01*
X4471349Y6413954D02*
G01*
X4471349Y6454594D01*
X11988256Y1515343D02*
G01*
X11571696Y1515343D01*
X12046676Y1375643D02*
G01*
X12006036Y1375643D01*
X11807916Y1375643D02*
G01*
X11752036Y1375643D01*
X11553916Y1375643D02*
G01*
X11513276Y1375643D01*
X9133260Y1515346D02*
G01*
X8716700Y1515346D01*
X9191680Y1375646D02*
G01*
X9151040Y1375646D01*
X8952920Y1375646D02*
G01*
X8897040Y1375646D01*
X8698920Y1375646D02*
G01*
X8658280Y1375646D01*
X2902899Y9286694D02*
G01*
X2775899Y9286694D01*
X3918899Y9286694D02*
G01*
X3791899Y9286694D01*
X2902910Y9461700D02*
G01*
X3791910Y9461700D01*
X3791910Y9111688D01*
X2902910Y9111688D01*
X2902910Y9461700D01*
X2166299Y8143694D02*
G01*
X2166299Y8016694D01*
X2166299Y9159694D02*
G01*
X2166299Y9032694D01*
X1991293Y8143704D02*
G01*
X1991293Y9032704D01*
X2341305Y9032704D01*
X2341305Y8143704D01*
X1991293Y8143704D01*
X4139991Y4582990D02*
G01*
X4139991Y4455990D01*
X4139991Y5598990D02*
G01*
X4139991Y5471990D01*
X3964985Y4583000D02*
G01*
X3964985Y5472000D01*
X4314997Y5472000D01*
X4314997Y4583000D01*
X3964985Y4583000D01*
X3689992Y4582988D02*
G01*
X3689992Y4455988D01*
X3689992Y5598988D02*
G01*
X3689992Y5471988D01*
X3514986Y4582998D02*
G01*
X3514986Y5471998D01*
X3864998Y5471998D01*
X3864998Y4582998D01*
X3514986Y4582998D01*
X6077912Y6492694D02*
G01*
X6204912Y6492694D01*
X5061912Y6492694D02*
G01*
X5188912Y6492694D01*
X6077902Y6317688D02*
G01*
X5188902Y6317688D01*
X5188902Y6667700D01*
X6077902Y6667700D01*
X6077902Y6317688D01*
X5188887Y5991044D02*
G01*
X5061887Y5991044D01*
X6204887Y5991044D02*
G01*
X6077887Y5991044D01*
X5188897Y6166050D02*
G01*
X6077897Y6166050D01*
X6077897Y5816038D01*
X5188897Y5816038D01*
X5188897Y6166050D01*
X5188887Y5489394D02*
G01*
X5061887Y5489394D01*
X6204887Y5489394D02*
G01*
X6077887Y5489394D01*
X5188897Y5664400D02*
G01*
X6077897Y5664400D01*
X6077897Y5314388D01*
X5188897Y5314388D01*
X5188897Y5664400D01*
X6125486Y1594995D02*
G01*
X5998486Y1594995D01*
X7141486Y1594995D02*
G01*
X7014486Y1594995D01*
X6125497Y1770001D02*
G01*
X7014497Y1770001D01*
X7014497Y1419989D01*
X6125497Y1419989D01*
X6125497Y1770001D01*
X6120485Y1114996D02*
G01*
X5993485Y1114996D01*
X7136485Y1114996D02*
G01*
X7009485Y1114996D01*
X6120495Y1290002D02*
G01*
X7009495Y1290002D01*
X7009495Y939990D01*
X6120495Y939990D01*
X6120495Y1290002D01*
X2690492Y1599996D02*
G01*
X2563492Y1599996D01*
X3706492Y1599996D02*
G01*
X3579492Y1599996D01*
X2690502Y1775002D02*
G01*
X3579502Y1775002D01*
X3579502Y1424990D01*
X2690502Y1424990D01*
X2690502Y1775002D01*
X10291709Y6058174D02*
G01*
X7541727Y6058174D01*
X8021711Y4758176D02*
G01*
X9003700Y4760183D01*
X9421708Y5308188D01*
X9791710Y5128178D02*
G01*
X9791707Y5318188D01*
X9581708Y5318188D01*
X10291709Y6058199D02*
G01*
X10291709Y4768184D01*
X9931689Y4768184D01*
X9931689Y2978195D01*
X7541701Y6058199D02*
G01*
X7541701Y4218198D01*
X7891713Y4218198D01*
X7891713Y2868188D01*
X9931689Y2868188D01*
X9931689Y3068187D01*
X9106849Y3495494D02*
G01*
X9348149Y3495494D01*
X8795699Y3495494D02*
G01*
X8503599Y3495494D01*
X8795699Y3622494D02*
G01*
X9100499Y3622494D01*
X9100499Y3381194D01*
X8795699Y3381194D01*
X8795699Y3622494D01*
X13491085Y6087168D02*
G01*
X10741103Y6087168D01*
X11221087Y4787171D02*
G01*
X12203076Y4789177D01*
X12621084Y5337182D01*
X12991086Y5157172D02*
G01*
X12991084Y5347182D01*
X12781084Y5347182D01*
X13491085Y6087193D02*
G01*
X13491085Y4797178D01*
X13131065Y4797178D01*
X13131065Y3007189D01*
X10741078Y6087193D02*
G01*
X10741078Y4247192D01*
X11091090Y4247192D01*
X11091090Y2897182D01*
X13131065Y2897182D01*
X13131065Y3097182D01*
X12306226Y3524488D02*
G01*
X12547526Y3524488D01*
X11995076Y3524488D02*
G01*
X11702976Y3524488D01*
X11995076Y3651488D02*
G01*
X12299876Y3651488D01*
X12299876Y3410188D01*
X11995076Y3410188D01*
X11995076Y3651488D01*
D13*
X4287199Y8067494D02*
G01*
X5303199Y8067494D01*
X5303199Y7559494D01*
X4287199Y7559494D01*
X4287199Y8067494D01*
D11*
X4505782Y1394101D02*
G01*
X4505782Y936901D01*
X5013180Y936901D02*
G01*
X4505782Y936901D01*
X4682980Y1394101D02*
G01*
X4505782Y1394101D01*
X5013180Y1394101D02*
G01*
X4835380Y1394101D01*
X5013180Y1394101D02*
G01*
X5013180Y936901D01*
G75*
G01*
X7297100Y7991295D02*
G02*
X7208200Y8067495I-6341J82561D01*
G75*
G01*
X7208200Y8931095D02*
G02*
X7284400Y9007295I76200J0D01*
G75*
G01*
X4515800Y8918395D02*
G02*
X4515800Y9172395I0J127000D01*
G75*
G01*
X4769800Y8918395D02*
G03*
X4769800Y9172395I0J127000D01*
G75*
G01*
X5227000Y9045395D02*
G02*
X5354000Y9172395I127000J0D01*
G75*
G01*
X5608000Y9172395D02*
G02*
X5735000Y9045395I0J-127000D01*
G75*
G01*
X5735000Y9045395D02*
G02*
X5608000Y8918395I-127000J0D01*
G75*
G01*
X5354000Y8918395D02*
G02*
X5227000Y9045395I0J127000D01*
G75*
G01*
X7138350Y6422895D02*
G02*
X6718409Y6553705I-165101J209450D01*
G75*
G01*
X6718409Y6711084D02*
G02*
X7138350Y6841894I254840J-78640D01*
G75*
G01*
X4611050Y5978395D02*
G02*
X4191109Y6109205I-165101J209450D01*
G75*
G01*
X4191109Y6266584D02*
G02*
X4611050Y6397394I254840J-78640D01*
G75*
G01*
X11989476Y1515344D02*
G02*
X11858666Y1095403I-209450J-165101D01*
G75*
G01*
X11701287Y1095403D02*
G02*
X11570477Y1515344I78640J254840D01*
G75*
G01*
X9134480Y1515346D02*
G02*
X9003670Y1095405I-209450J-165101D01*
G75*
G01*
X8846292Y1095405D02*
G02*
X8715482Y1515346I78639J254840D01*
G75*
G01*
X4835383Y1394104D02*
G02*
X4682983Y1394104I-76200J0D01*
G75*
G01
X4295902Y7013397D02*
G03X4295902Y7013397I-250012J0D01*
G75*
G01
X3204997Y7417689D02*
G03X3204997Y7417689I-250012J0D01*
D14*
G75*
G01
X4414190Y7661097D02*
G03X4414190Y7661097I-25400J0D01*
D11*
G75*
G01
X4582897Y1317600D02*
G03X4582897Y1317600I-12700J0D01*
M02*
