G04 Layer: TopLayer*
G04 EasyEDA v6.5.22, 2023-02-01 00:42:27*
G04 7127771f42f84564bfbaeca74c76f867,1155796f3fab4927abb0b91c794f2a8a,10*
G04 Gerber Generator version 0.2*
G04 Scale: 100 percent, Rotated: No, Reflected: No *
G04 Dimensions in millimeters *
G04 leading zeros omitted , absolute positions ,4 integer and 5 decimal *
%FSLAX45Y45*%
%MOMM*%

%ADD10R,1.8796X1.8796*%
%ADD11C,1.8796*%
%ADD12O,3.0159960000000003X1.5079980000000002*%
%ADD13C,1.5240*%
%ADD14C,1.9200*%
%ADD15C,1.6000*%
%ADD16C,1.8034*%
%ADD17R,3.0000X3.0000*%
%ADD18C,3.0000*%
%ADD19R,7.6200X3.8100*%
%ADD20O,7.62X3.81*%
%ADD21R,1.6764X1.6764*%
%ADD22C,2.0000*%
%ADD23C,3.5000*%
%ADD24C,1.4000*%
%ADD25C,1.8000*%

%LPD*%
D10*
G01*
X2704998Y875004D03*
D11*
G01*
X2704998Y1129004D03*
D10*
G01*
X2699994Y4089984D03*
D11*
G01*
X2699994Y4343984D03*
D12*
G01*
X7398689Y8753297D03*
G01*
X7398689Y8499297D03*
G01*
X7398689Y8245297D03*
D13*
G01*
X4769789Y9045397D03*
G01*
X4515789Y9045397D03*
D14*
G01*
X5226989Y9045397D03*
G01*
X5734989Y9045397D03*
D15*
G01*
X3918889Y7000697D03*
G01*
X4172889Y7000697D03*
G01*
X2827985Y7404988D03*
G01*
X3081985Y7404988D03*
D16*
G01*
X2849981Y8554974D03*
G01*
X3865981Y8554974D03*
G01*
X2826689Y8067497D03*
G01*
X3842689Y8067497D03*
D17*
G01*
X9430689Y7711897D03*
D18*
G01*
X9430689Y9235897D03*
D17*
G01*
X10192689Y7711897D03*
D18*
G01*
X10192689Y9235897D03*
D17*
G01*
X10954689Y7711897D03*
D18*
G01*
X10954689Y9235897D03*
D17*
G01*
X11716689Y7711897D03*
D18*
G01*
X11716689Y9235897D03*
D17*
G01*
X12478689Y7711897D03*
D18*
G01*
X12478689Y9235897D03*
D15*
G01*
X11588978Y2299995D03*
G01*
X12604978Y2299995D03*
G01*
X8413978Y2429992D03*
G01*
X9429978Y2429992D03*
D19*
G01*
X1251889Y6048197D03*
D20*
G01*
X1251889Y5540197D03*
G01*
X1251889Y5540197D03*
D19*
G01*
X1251889Y2524988D03*
D20*
G01*
X1251889Y3032988D03*
G01*
X1251889Y3032988D03*
D21*
G01*
X6973239Y6505397D03*
G01*
X6782739Y6632397D03*
G01*
X6973239Y6759397D03*
G01*
X4445939Y6060897D03*
G01*
X4255439Y6187897D03*
G01*
X4445939Y6314897D03*
G01*
X11906986Y1350238D03*
G01*
X11779986Y1159738D03*
G01*
X11652986Y1350238D03*
G01*
X9051975Y1350238D03*
G01*
X8924975Y1159738D03*
G01*
X8797975Y1350238D03*
D13*
G01*
X2648915Y9286697D03*
G01*
X4045915Y9286697D03*
G01*
X2166289Y7889697D03*
G01*
X2166289Y9286697D03*
G01*
X4139996Y4328998D03*
G01*
X4139996Y5725998D03*
G01*
X3689984Y4328998D03*
G01*
X3689984Y5725998D03*
G01*
X6331915Y6492697D03*
G01*
X4934915Y6492697D03*
G01*
X4934889Y5991047D03*
G01*
X6331889Y5991047D03*
G01*
X4934889Y5489397D03*
G01*
X6331889Y5489397D03*
G01*
X5871489Y1594993D03*
G01*
X7268489Y1594993D03*
G01*
X5866485Y1114983D03*
G01*
X7263485Y1114983D03*
G01*
X2436495Y1599996D03*
G01*
X3833495Y1599996D03*
D22*
G01*
X9430689Y3508197D03*
D23*
G01*
X8032699Y4778197D03*
G01*
X9812680Y5794197D03*
G01*
X9812680Y5032197D03*
D22*
G01*
X8414689Y3508197D03*
G01*
X12630073Y3537178D03*
D23*
G01*
X11232083Y4807178D03*
G01*
X13012064Y5823178D03*
G01*
X13012064Y5061178D03*
D22*
G01*
X11614073Y3537178D03*
D24*
G01*
X4414189Y7432497D03*
G01*
X4668189Y7432497D03*
G01*
X4922189Y7432497D03*
G01*
X5176189Y7432497D03*
G01*
X4414189Y8194497D03*
G01*
X4668189Y8194497D03*
G01*
X4922189Y8194497D03*
G01*
X5176189Y8194497D03*
D25*
G01*
X4368012Y1291488D03*
G01*
X5152009Y1292504D03*
G01*
X5152009Y1038504D03*
G01*
X4368977Y1037488D03*
M02*
