<svg version="1.1" xmlns="http://www.w3.org/2000/svg" xmlns:xlink="http://www.w3.org/1999/xlink" stroke-linecap="round" stroke-linejoin="round" stroke-width="0" fill-rule="evenodd" clip-rule="evenodd" fill="currentColor" stroke="currentColor" viewBox="10.0135 -89.9225 127.62950000000001 85.3535" width="127.62950000000001mm" height="85.3535mm"><circle cx="66.986" cy="-56.826" r="0.4"></circle><circle cx="64.446" cy="-56.826" r="0.4"></circle><circle cx="66.986" cy="-47.767" r="0.4"></circle><circle cx="64.446" cy="-47.767" r="0.4"></circle><circle cx="10.471" cy="-76.765" r="0.457"></circle><circle cx="25.031" cy="-76.765" r="0.457"></circle><circle cx="15.043" cy="-50.348" r="0.457"></circle><circle cx="20.885" cy="-50.348" r="0.457"></circle><circle cx="15.043" cy="-76.764" r="0.457"></circle><circle cx="20.885" cy="-76.764" r="0.457"></circle><circle cx="54.159" cy="-26.092" r="0.457"></circle><circle cx="54.032" cy="-18.599" r="0.457"></circle><circle cx="40.936" cy="-26.6" r="0.457"></circle><circle cx="40.936" cy="-24.06" r="0.457"></circle><circle cx="52.508" cy="-52.889" r="0.457"></circle><circle cx="40.951" cy="-50.476" r="0.457"></circle><circle cx="40.925" cy="-76.765" r="0.457"></circle><circle cx="50.857" cy="-80.067" r="0.457"></circle><circle cx="28.251" cy="-68.123" r="0.457"></circle><circle cx="38.177" cy="-68.154" r="0.457"></circle><circle cx="38.075" cy="-42.221" r="0.457"></circle><circle cx="37.948" cy="-15.424" r="0.457"></circle><circle cx="28.251" cy="-35.49" r="0.457"></circle><circle cx="122.276" cy="-30.283" r="0.457"></circle><circle cx="126.467" cy="-29.394" r="0.457"></circle><circle cx="129.515" cy="-28.251" r="0.457"></circle><circle cx="131.928" cy="-27.235" r="0.457"></circle><circle cx="134.468" cy="-25.457" r="0.457"></circle><circle cx="105.512" cy="-73.463" r="0.457"></circle><circle cx="124.272" cy="-78.67" r="0.457"></circle><circle cx="125.796" cy="-66.605" r="0.457"></circle><circle cx="124.747" cy="-63.753" r="0.457"></circle><circle cx="124.441" cy="-57.207" r="0.457"></circle><circle cx="125.408" cy="-48.868" r="0.457"></circle><circle cx="113.937" cy="-34.474" r="0.457"></circle><circle cx="104.623" cy="-15.551" r="0.457"></circle><circle cx="113.894" cy="-15.424" r="0.457"></circle><circle cx="122.53" cy="-15.678" r="0.457"></circle><circle cx="106.342" cy="-30.283" r="0.457"></circle><circle cx="117.45" cy="-39.173" r="0.457"></circle><circle cx="102.083" cy="-45.904" r="0.457"></circle><circle cx="103.353" cy="-51.111" r="0.457"></circle><circle cx="100.686" cy="-34.728" r="0.457"></circle><circle cx="102.845" cy="-32.569" r="0.457"></circle><circle cx="94.463" cy="-67.621" r="0.457"></circle><circle cx="94.082" cy="-49.206" r="0.457"></circle><circle cx="97.384" cy="-86.036" r="0.457"></circle><circle cx="71.05" cy="-15.018" r="0.457"></circle><circle cx="78.018" cy="-14.215" r="0.457"></circle><circle cx="20.295" cy="-36.887" r="0.457"></circle><circle cx="20.168" cy="-63.176" r="0.457"></circle><circle cx="19.914" cy="-89.465" r="0.457"></circle><circle cx="17.242" cy="-18.004" r="0.457"></circle><circle cx="17.006" cy="-45.396" r="0.457"></circle><circle cx="17.272" cy="-70.866" r="0.457"></circle><circle cx="45.015" cy="-76.765" r="0.4575"></circle><circle cx="47.555" cy="-76.765" r="0.4575"></circle><circle cx="45.015" cy="-74.225" r="0.4575"></circle><circle cx="47.555" cy="-74.225" r="0.4575"></circle><circle cx="47.555" cy="-79.305" r="0.4575"></circle><circle cx="45.015" cy="-79.305" r="0.4575"></circle><circle cx="45.015" cy="-50.412" r="0.4575"></circle><circle cx="47.555" cy="-50.412" r="0.4575"></circle><circle cx="45.015" cy="-47.872" r="0.4575"></circle><circle cx="47.555" cy="-47.872" r="0.4575"></circle><circle cx="47.555" cy="-52.952" r="0.4575"></circle><circle cx="45.015" cy="-52.952" r="0.4575"></circle><circle cx="45.015" cy="-24.06" r="0.4575"></circle><circle cx="47.555" cy="-24.06" r="0.4575"></circle><circle cx="45.015" cy="-21.52" r="0.4575"></circle><circle cx="47.555" cy="-21.52" r="0.4575"></circle><circle cx="47.555" cy="-26.6" r="0.4575"></circle><circle cx="45.015" cy="-26.6" r="0.4575"></circle><circle cx="10.471" cy="-79.305" r="0.4575"></circle><circle cx="10.471" cy="-81.845" r="0.4575"></circle><circle cx="10.471" cy="-84.385" r="0.4575"></circle><circle cx="10.471" cy="-50.349" r="0.4575"></circle><circle cx="10.471" cy="-52.889" r="0.4575"></circle><circle cx="10.471" cy="-55.429" r="0.4575"></circle><circle cx="10.471" cy="-57.969" r="0.4575"></circle><circle cx="10.471" cy="-23.933" r="0.4575"></circle><circle cx="10.471" cy="-26.473" r="0.4575"></circle><circle cx="10.471" cy="-29.013" r="0.4575"></circle><circle cx="10.471" cy="-31.553" r="0.4575"></circle><circle cx="66.351" cy="-70.288" r="0.4575"></circle><circle cx="52.381" cy="-70.288" r="0.4575"></circle><circle cx="66.859" cy="-76.384" r="0.4575"></circle><circle cx="52.889" cy="-76.384" r="0.4575"></circle><circle cx="66.859" cy="-82.734" r="0.4575"></circle><circle cx="52.889" cy="-82.734" r="0.4575"></circle><circle cx="55.81" cy="-30.918" r="0.4575"></circle><circle cx="55.81" cy="-44.888" r="0.4575"></circle><circle cx="49.65" cy="-30.918" r="0.4575"></circle><circle cx="49.65" cy="-44.888" r="0.4575"></circle><circle cx="43.491" cy="-30.918" r="0.4575"></circle><circle cx="43.491" cy="-44.888" r="0.4575"></circle><circle cx="71.05" cy="-26.092" r="0.4575"></circle><circle cx="57.08" cy="-26.092" r="0.4575"></circle><circle cx="71.05" cy="-18.599" r="0.4575"></circle><circle cx="57.08" cy="-18.599" r="0.4575"></circle><circle cx="71.05" cy="-11.106" r="0.4575"></circle><circle cx="57.08" cy="-11.106" r="0.4575"></circle><circle cx="108.115" cy="-34.474" r="0.4575"></circle><circle cx="122.085" cy="-34.474" r="0.4575"></circle><circle cx="108.115" cy="-41.314" r="0.4575"></circle><circle cx="122.085" cy="-41.314" r="0.4575"></circle><circle cx="108.115" cy="-48.153" r="0.4575"></circle><circle cx="122.085" cy="-48.153" r="0.4575"></circle><circle cx="108.115" cy="-68.673" r="0.4575"></circle><circle cx="122.085" cy="-68.673" r="0.4575"></circle><circle cx="108.115" cy="-61.833" r="0.4575"></circle><circle cx="122.085" cy="-61.833" r="0.4575"></circle><circle cx="108.115" cy="-54.993" r="0.4575"></circle><circle cx="122.085" cy="-54.993" r="0.4575"></circle><circle cx="108.115" cy="-82.353" r="0.4575"></circle><circle cx="122.085" cy="-82.353" r="0.4575"></circle><circle cx="108.115" cy="-75.513" r="0.4575"></circle><circle cx="122.085" cy="-75.513" r="0.4575"></circle><circle cx="25.031" cy="-89.465" r="0.4575"></circle><circle cx="25.031" cy="-86.925" r="0.4575"></circle><circle cx="25.031" cy="-84.385" r="0.4575"></circle><circle cx="25.031" cy="-81.845" r="0.4575"></circle><circle cx="25.031" cy="-74.225" r="0.4575"></circle><circle cx="25.031" cy="-71.685" r="0.4575"></circle><circle cx="25.031" cy="-79.305" r="0.4575"></circle><circle cx="35.281" cy="-89.465" r="0.4575"></circle><circle cx="35.281" cy="-86.925" r="0.4575"></circle><circle cx="35.281" cy="-84.385" r="0.4575"></circle><circle cx="35.281" cy="-81.845" r="0.4575"></circle><circle cx="35.281" cy="-79.305" r="0.4575"></circle><circle cx="35.281" cy="-76.765" r="0.4575"></circle><circle cx="35.281" cy="-74.225" r="0.4575"></circle><circle cx="35.281" cy="-71.685" r="0.4575"></circle><circle cx="25.031" cy="-63.112" r="0.4575"></circle><circle cx="25.031" cy="-60.572" r="0.4575"></circle><circle cx="25.031" cy="-58.032" r="0.4575"></circle><circle cx="25.031" cy="-55.492" r="0.4575"></circle><circle cx="25.031" cy="-50.412" r="0.4575"></circle><circle cx="25.031" cy="-47.872" r="0.4575"></circle><circle cx="25.031" cy="-45.332" r="0.4575"></circle><circle cx="25.031" cy="-52.952" r="0.4575"></circle><circle cx="35.281" cy="-63.112" r="0.4575"></circle><circle cx="35.281" cy="-60.572" r="0.4575"></circle><circle cx="35.281" cy="-58.032" r="0.4575"></circle><circle cx="35.281" cy="-55.492" r="0.4575"></circle><circle cx="35.281" cy="-52.952" r="0.4575"></circle><circle cx="35.281" cy="-50.412" r="0.4575"></circle><circle cx="35.281" cy="-47.872" r="0.4575"></circle><circle cx="35.281" cy="-45.332" r="0.4575"></circle><circle cx="25.031" cy="-36.76" r="0.4575"></circle><circle cx="25.031" cy="-34.22" r="0.4575"></circle><circle cx="25.031" cy="-31.68" r="0.4575"></circle><circle cx="25.031" cy="-29.14" r="0.4575"></circle><circle cx="25.031" cy="-24.06" r="0.4575"></circle><circle cx="25.031" cy="-21.52" r="0.4575"></circle><circle cx="25.031" cy="-18.98" r="0.4575"></circle><circle cx="25.031" cy="-26.6" r="0.4575"></circle><circle cx="35.281" cy="-36.76" r="0.4575"></circle><circle cx="35.281" cy="-34.22" r="0.4575"></circle><circle cx="35.281" cy="-31.68" r="0.4575"></circle><circle cx="35.281" cy="-29.14" r="0.4575"></circle><circle cx="35.281" cy="-26.6" r="0.4575"></circle><circle cx="35.281" cy="-24.06" r="0.4575"></circle><circle cx="35.281" cy="-21.52" r="0.4575"></circle><circle cx="35.281" cy="-18.98" r="0.4575"></circle><circle cx="90.608" cy="-73.971" r="0.4575"></circle><circle cx="90.608" cy="-71.431" r="0.4575"></circle><circle cx="90.608" cy="-68.891" r="0.4575"></circle><circle cx="90.608" cy="-66.351" r="0.4575"></circle><circle cx="90.608" cy="-63.811" r="0.4575"></circle><circle cx="90.608" cy="-61.271" r="0.4575"></circle><circle cx="90.608" cy="-58.731" r="0.4575"></circle><circle cx="90.608" cy="-56.191" r="0.4575"></circle><circle cx="90.608" cy="-53.651" r="0.4575"></circle><circle cx="90.608" cy="-51.111" r="0.4575"></circle><circle cx="90.608" cy="-48.571" r="0.4575"></circle><circle cx="90.608" cy="-46.031" r="0.4575"></circle><circle cx="90.608" cy="-43.491" r="0.4575"></circle><circle cx="90.608" cy="-40.951" r="0.4575"></circle><circle cx="98.228" cy="-40.951" r="0.4575"></circle><circle cx="98.228" cy="-43.491" r="0.4575"></circle><circle cx="98.228" cy="-46.031" r="0.4575"></circle><circle cx="98.228" cy="-48.571" r="0.4575"></circle><circle cx="98.228" cy="-51.111" r="0.4575"></circle><circle cx="98.228" cy="-53.651" r="0.4575"></circle><circle cx="98.228" cy="-56.191" r="0.4575"></circle><circle cx="98.228" cy="-58.731" r="0.4575"></circle><circle cx="98.228" cy="-61.271" r="0.4575"></circle><circle cx="98.228" cy="-63.811" r="0.4575"></circle><circle cx="98.228" cy="-66.351" r="0.4575"></circle><circle cx="98.228" cy="-68.891" r="0.4575"></circle><circle cx="98.228" cy="-71.431" r="0.4575"></circle><circle cx="98.228" cy="-73.971" r="0.4575"></circle><circle cx="74.219" cy="-49.298" r="0.4575"></circle><circle cx="74.219" cy="-55.548" r="0.4575"></circle><circle cx="42.221" cy="-34.22" r="0.4575"></circle><circle cx="42.094" cy="-60.509" r="0.4575"></circle><circle cx="42.094" cy="-86.925" r="0.4575"></circle><circle cx="84.004" cy="-61.271" r="0.4575"></circle><circle cx="84.004" cy="-63.811" r="0.4575"></circle><circle cx="84.004" cy="-66.351" r="0.4575"></circle><circle cx="15.043" cy="-23.933" r="0.4575"></circle><circle cx="20.885" cy="-23.933" r="0.4575"></circle><circle cx="11.233" cy="-70.387" r="0.5"></circle><circle cx="11.233" cy="-66.887" r="0.5"></circle><circle cx="11.233" cy="-42.891" r="0.5"></circle><circle cx="11.233" cy="-39.391" r="0.5"></circle><circle cx="11.233" cy="-15.396" r="0.5"></circle><circle cx="11.233" cy="-11.896" r="0.5"></circle><circle cx="128.626" cy="-34.728" r="0.5"></circle><circle cx="136.246" cy="-34.728" r="0.5"></circle><circle cx="128.753" cy="-41.607" r="0.5"></circle><circle cx="136.373" cy="-41.607" r="0.5"></circle><circle cx="128.753" cy="-48.867" r="0.5"></circle><circle cx="136.373" cy="-48.867" r="0.5"></circle><circle cx="128.753" cy="-70.648" r="0.5"></circle><circle cx="136.373" cy="-70.648" r="0.5"></circle><circle cx="128.753" cy="-63.387" r="0.5"></circle><circle cx="136.373" cy="-63.387" r="0.5"></circle><circle cx="128.753" cy="-56.127" r="0.5"></circle><circle cx="136.373" cy="-56.127" r="0.5"></circle><circle cx="128.753" cy="-77.908" r="0.5"></circle><circle cx="136.373" cy="-77.908" r="0.5"></circle><circle cx="73.533" cy="-6.096" r="0.5005"></circle><circle cx="58.193" cy="-7.677" r="0.5005"></circle><circle cx="98.12" cy="-5.933" r="0.508"></circle><circle cx="100.66" cy="-5.933" r="0.508"></circle><circle cx="89.002" cy="-5.933" r="0.508"></circle><circle cx="91.542" cy="-5.933" r="0.508"></circle><circle cx="107.239" cy="-5.933" r="0.508"></circle><circle cx="109.779" cy="-5.933" r="0.508"></circle><circle cx="116.357" cy="-5.933" r="0.508"></circle><circle cx="118.897" cy="-5.933" r="0.508"></circle><circle cx="134.595" cy="-5.933" r="0.508"></circle><circle cx="137.135" cy="-5.933" r="0.508"></circle><circle cx="125.476" cy="-5.933" r="0.508"></circle><circle cx="128.016" cy="-5.933" r="0.508"></circle><circle cx="107.239" cy="-20.25" r="0.508"></circle><circle cx="109.779" cy="-20.25" r="0.508"></circle><circle cx="98.12" cy="-20.25" r="0.508"></circle><circle cx="100.66" cy="-20.25" r="0.508"></circle><circle cx="89.002" cy="-20.25" r="0.508"></circle><circle cx="91.542" cy="-20.25" r="0.508"></circle><circle cx="125.476" cy="-20.25" r="0.508"></circle><circle cx="128.016" cy="-20.25" r="0.508"></circle><circle cx="116.357" cy="-20.25" r="0.508"></circle><circle cx="118.897" cy="-20.25" r="0.508"></circle><circle cx="134.595" cy="-20.25" r="0.508"></circle><circle cx="137.135" cy="-20.25" r="0.508"></circle><circle cx="80.366" cy="-20.25" r="0.508"></circle><circle cx="82.906" cy="-20.25" r="0.508"></circle><path stroke-width="1.27" fill="none" d="M77.724 -6.855L77.724 -6.861"></path><path stroke-width="1.27" fill="none" d="M82.804 -6.855L82.804 -6.861"></path><path stroke-width="1.27" fill="none" d="M82.804 -6.855L82.804 -6.861"></path><path stroke-width="1.27" fill="none" d="M18.669 -5.204L18.669 -5.21"></path><path stroke-width="1.27" fill="none" d="M23.749 -5.204L23.749 -5.21"></path><path stroke-width="1.27" fill="none" d="M23.749 -5.204L23.749 -5.21"></path></svg>